# xmcd CD database file
#
# Track frame offsets:
#	150
#	26849
#	30251
#	49378
#	77175
#	107761
#	138538
#	164661
#	172260
#	194881
#	215027
#	238336
#	271373
#
# Disc length: 3972 seconds
#
# Revision: 0
# Processed by: cddbd v1.5.2PL0 Copyright (c) Steve Scherf et al.
# Submitted via: CDex 1.70beta2
#
DISCID=d00f820d
DTITLE=Bob Harrisson - Entre Nous
DYEAR=1900
DGENRE=Blues
TTITLE0=Sweet home Chicago
TTITLE1=Introduction
TTITLE2=Something you got
TTITLE3=Ayoye
TTITLE4=Kansas City
TTITLE5=Don't let the green grass fool you
TTITLE6=La ballade de Jean Batailleur
TTITLE7=Intro Chat dans gorge
TTITLE8=Chat dans gorge
TTITLE9=Good time
TTITLE10=What a wonderful world
TTITLE11=It's been so long
TTITLE12=Câline de blues
EXTD=
EXTT0=
EXTT1=
EXTT2=
EXTT3=
EXTT4=
EXTT5=
EXTT6=
EXTT7=
EXTT8=
EXTT9=
EXTT10=
EXTT11=
EXTT12=
PLAYORDER=
